/* XPM */
static char *_e799a95052441dab84f0f35bec232cdNMOv280AFV1TlqoT[] = {
/* columns rows colors chars-per-pixel */
"32 32 212 2 ",
"   c #2C2C1D",
".  c #3C3B1D",
"X  c #35341A",
"o  c #262626",
"O  c #2C2C2D",
"+  c #272728",
"@  c #313121",
"#  c #34332D",
"$  c #3C3C2C",
"%  c #3C3B21",
"&  c #2E2E30",
"*  c #333333",
"=  c #3B3B36",
"-  c #363639",
";  c #3B3B3C",
":  c #373835",
">  c #52500A",
",  c #49481B",
"<  c #5D5C1A",
"1  c #7B7908",
"2  c #706F17",
"3  c #7B7912",
"4  c #7A7719",
"5  c #696612",
"6  c #414123",
"7  c #4E4C25",
"8  c #44432B",
"9  c #494829",
"0  c #5D5C23",
"q  c #58562B",
"w  c #43423A",
"e  c #484736",
"r  c #525237",
"t  c #5C5B32",
"y  c #5A593D",
"u  c #615F21",
"i  c #6C6A2B",
"p  c #696728",
"a  c #74732B",
"s  c #7D7C2B",
"d  c #777522",
"f  c #69673B",
"g  c #676537",
"h  c #7B7938",
"j  c #3D3D40",
"k  c #434343",
"l  c #4B4A43",
"z  c #464648",
"x  c #4B4B4B",
"c  c #545341",
"v  c #5A5A42",
"b  c #55544C",
"n  c #5C5C4B",
"m  c #4F5050",
"M  c #535454",
"N  c #5B5B55",
"B  c #575758",
"V  c #5B5B5B",
"C  c #65644D",
"Z  c #696845",
"A  c #7C7A45",
"S  c #757548",
"D  c #62625E",
"F  c #6A6A5D",
"G  c #696953",
"H  c #706F54",
"J  c #787756",
"K  c #5F5F62",
"L  c #646465",
"P  c #6A6A64",
"I  c #6D6D6D",
"U  c #66666A",
"Y  c #747365",
"T  c #7B7A63",
"R  c #7B7B6B",
"E  c #747367",
"W  c #6E6E71",
"Q  c #747474",
"!  c #7A7A76",
"~  c #777779",
"^  c #7B7B7B",
"/  c #807D15",
"(  c #898709",
")  c #969405",
"_  c #9D9A02",
"`  c #8E8B11",
"'  c #8A8819",
"]  c #908C11",
"[  c #9E9C1B",
"{  c #908C0A",
"}  c #A49F0A",
"|  c #A29F19",
" . c #ABA706",
".. c #BBB500",
"X. c #BCB508",
"o. c #A7A317",
"O. c #B5B01E",
"+. c #B0AA14",
"@. c #838225",
"#. c #8D8A2B",
"$. c #81802F",
"%. c #918E28",
"&. c #959325",
"*. c #999626",
"=. c #838234",
"-. c #8D8B39",
";. c #858539",
":. c #99963D",
">. c #9D9B3E",
",. c #9D9A35",
"<. c #A19E27",
"1. c #A19F3F",
"2. c #A49F32",
"3. c #A8A52D",
"4. c #B0AC24",
"5. c #ABA839",
"6. c #B4AF33",
"7. c #B8B339",
"8. c #B5B129",
"9. c #C4BC12",
"0. c #C5BE23",
"q. c #C3BD3D",
"w. c #CCC308",
"e. c #83824A",
"r. c #8C8A4C",
"t. c #9C9A43",
"y. c #8D8B54",
"u. c #83825C",
"i. c #88875D",
"p. c #8C8B59",
"a. c #868555",
"s. c #908E56",
"d. c #95945B",
"f. c #9C9B5D",
"g. c #999652",
"h. c #A19E4C",
"j. c #A09E5B",
"k. c #ABA747",
"l. c #B0AC45",
"z. c #B9B44A",
"x. c #A6A456",
"c. c #B0AD5B",
"v. c #B5B150",
"b. c #B8B55D",
"n. c #82816C",
"m. c #8D8C6D",
"M. c #858563",
"N. c #908F62",
"B. c #939267",
"V. c #95946D",
"C. c #9E9C6B",
"Z. c #838274",
"A. c #8B8B73",
"S. c #82827C",
"D. c #8D8C7B",
"F. c #969473",
"G. c #989774",
"H. c #9D9C74",
"J. c #94937D",
"K. c #99987E",
"L. c #A19F6C",
"P. c #AAA863",
"I. c #B1AE64",
"U. c #A5A479",
"Y. c #BAB772",
"T. c #C1BC58",
"R. c #C0BD6D",
"E. c #CFCC78",
"W. c #7F7F83",
"Q. c #848484",
"!. c #8D8C83",
"~. c #878789",
"^. c #8A8A8B",
"/. c #87888C",
"(. c #939283",
"). c #9B9B85",
"_. c #93938C",
"`. c #9B9A89",
"'. c #989789",
"]. c #8F8F91",
"[. c #949494",
"{. c #989794",
"}. c #9C9C94",
"|. c #9A9A9B",
" X c #959699",
".X c #A5A384",
"XX c #A6A58C",
"oX c #AAA986",
"OX c #B0AF89",
"+X c #B2B184",
"@X c #B9B78A",
"#X c #AAA993",
"$X c #A4A39B",
"%X c #ABAB9C",
"&X c #A3A295",
"*X c #B0AF99",
"=X c #BAB895",
"-X c #A2A2A5",
";X c #ABABA3",
":X c #ABABAB",
">X c #B2B2A9",
",X c #B4B3A7",
"<X c #AEAEB1",
"1X c #B3B3B5",
"2X c #BBBBBC",
"3X c #BBBBB2",
"4X c #C2BF89",
"5X c #C2C08E",
"6X c #C8C699",
"7X c #D0D0B8",
"8X c #C8C7AC",
"9X c #C5C5C3",
/* pixels */
"V V V M V =X9.X.@XE.7XT.6.x Q.2X=Xb. .;.U : c s a P F n b n M M ",
"V.(.^.V m 3X4.{ h.8.*X.X#.; /.%XC.d.3 f M O / ../ &XT.+.Z o.u.|.",
"g.p.Q.M x 3X*.a _.).d.Q.J * D 1.f. XJ D z O 3 ] ^ T.3.` C s Z G.",
"'.Q.^ j z 2X).D..X}.B. X^ O x T n.Q I B * # g J ^.x.m.i E Q.Z.J ",
"~.Q m * w 9X-X!.4.A.[.|.^ * ; k ; * * : & * W {.p.(.J.~ W.^.~.W.",
"k ; O o j <X:XB.| Z.[.D.R - : M A J.|.:Xr.$ L !.F H g M M z l k ",
"O O O O z Q.1X[.D.[.].A.G - * B.w..X@X+X;.6 ; k ; = # * & + o O ",
"N M M m k V ;X).t.A.].A.C j & k.t.F.0.p.p w t t z j M N V V N V ",
"5.Y.h.Y ; x _.u.M.S.W.Q.W k O :.D.j.#.! N - ` ' l P z.z.I..X6.P.",
">. .1 n - z P Q I L L B x & + Q Q H k j - * s S j T 7.j.*.G. .=.",
").#.f D * k x j O + + + + + O V b 6 . # + k '.!.j Q }.).J.{.h.e.",
">.Z.Q.L * c %.4 F Q z e ' #.y.<X@X . .' 6 Q 9X,Xr Y &X.XU.U.[.{.",
"-.!.^ b & 5  .A T E z G Y.P.P.oXU.d.%.1 X T oX.Xu a T g.o.h ! ! ",
"x z ; O & i =.S.-.p - U 6Xc.2.f.k.'.B.Z @ J K.&X8 $ # % . X - k ",
"x n D L B ^ $XV.a.Z $ K 6Xl.@.].}.C.%.N X t.7X$Xj w $ $ $ # & * ",
"P.*.(.%X~ ~ 2X(.A.~ % B OXo.A  X|.U.' n   -.8X:.w t ( ) ) / Z x ",
"| e.D.2.G ^ 1X|.J.^ % ; ).x.:.D./.N.' x @ p.5X3 : W.F.` s d G x ",
"(. XB.` n ~ <XU.L.^ . #  X4X( n. Xg.s z X D.#X5 X ^.#X' S.Q.Q k ",
"2X}.r.d V I 1XC.d.S., + I #XY Q.Z.S P ; * L F > 8 W R i P I V ; ",
"9XH.s.r.P V 1X X].^ r @ x U K z ; = x : = x k e k w ; * * : * * ",
"z.j.C.( n x 1X).D.Q.v   w t < 0 0 n U Q ~ Q./.y.{ @.A.a.M.A W x ",
"_ D.J.h l j 1Xm.! Q.y   8  .......,.:X:X+X%X*X4.<.5.b.Y.7. .H k ",
"&.(.|./.k k :X|.[.Q.r   # %.o.} _ ( J.<Xx.H.%XU.x.3.J.}.y.-.N : ",
"Z.Q.~ V * k |. X[.~ x o *  X+X/ 2 S A.;X|.}.I.U.D.~.v.U.`.a.V : ",
"x x z w & k U P U V k o & |.3XS.m.*.V.}.-X#Xx.L.XX&Xh.).}.g.N * ",
"B t 7 w - k * + + O + o + W W.I J 3 M.].'.k.[ D.|.{.[.'.G.^.V & ",
"c.w.O.t.i.u.f q 7 7 e z k m k - - : x B C v b V B V V V M M w * ",
"@Xv.XX;X>X+XI.3.[ | { / ].'.A.W.M k - * * * & & O + O + O O : k ",
"1X2X,Xv.U.2X2X,XP.).B.F.-X4Xl.~.k z i / f B x r 3 2 u c b M m m ",
"|.~.Y 4 H ~./.S.A.Q.].[.~ S.E V : ; / / u.1X~ J h.g.L.XX5.'.W.z ",
"M * & @ * O & # & & * # & & & & O & n < D I D L Q.j.3.F./ Z.I ; ",
"z ; - - : : & O & & # O & & & # & * w 8 - # * z l , e 8 w k ; ; "
};
