/* XPM */
static char *_ea674e7d8794e5692d1272c58a4cc94OLcKj0i8MbJNJjDc[] = {
/* columns rows colors chars-per-pixel */
"32 32 90 1 ",
"  c #020202",
". c #070707",
"X c #00000B",
"o c #00000F",
"O c gray3",
"+ c #0B0B0B",
"@ c #0E0E0E",
"# c #000012",
"$ c #000014",
"% c #070715",
"& c #01011A",
"* c #040418",
"= c #00001D",
"- c #0C0C1B",
"; c #101010",
": c gray7",
"> c #141415",
", c #161616",
"< c gray9",
"1 c #17171F",
"2 c gray10",
"3 c #18181E",
"4 c #000022",
"5 c #000026",
"6 c #000028",
"7 c #00002B",
"8 c #101021",
"9 c #171721",
"0 c #171722",
"q c #131327",
"w c #171725",
"e c #171727",
"r c #16162B",
"t c #000032",
"y c #000035",
"u c #00003C",
"i c #00003E",
"p c #0F0F3E",
"a c gray21",
"s c #000042",
"d c #040443",
"f c #000047",
"g c #040444",
"h c #00004B",
"j c #00004E",
"k c #04044D",
"l c #000050",
"z c #000054",
"x c #00005B",
"c c #00005C",
"v c #30305B",
"b c #000061",
"n c #000064",
"m c #060665",
"M c #00006A",
"N c #00006F",
"B c #000073",
"V c #000074",
"C c #00007A",
"Z c #00007C",
"A c #05057F",
"S c #09097A",
"D c #2B2B61",
"F c #404049",
"G c #424248",
"H c #000083",
"J c #050583",
"K c #000086",
"L c #00008A",
"P c #050589",
"I c #00008E",
"U c #000092",
"Y c #050592",
"T c #000097",
"R c #000099",
"E c #00009F",
"W c #0000A0",
"Q c #0000A5",
"! c #0000AB",
"~ c #0000AD",
"^ c #0000B1",
"/ c #0000B5",
"( c #0C0CB4",
") c #0000BB",
"_ c #0000BD",
"` c #0000C0",
"' c #0405C2",
"] c #0000CA",
"[ c #0909CC",
"{ c #0000D5",
/* pixels */
"RUITLLUILLZCn RULRKZn,WQWQTMnRIO",
"HZZNKHCMVZnxl TIHZVVj,!Q^QUBzLb ",
"ZELHLIHVnBBbj RLInBcj,!~'WLMznj ",
"LRRZBKZnMzMzl RZVKCnj,W!REKnyy6 ",
"CLBLKzlxMbnxj UCNCMjj,WQLZZzzER ",
"HNKbczjzbinMl KVbBcch,W^TCVlzIn ",
"CMbzbzzjjshhh CMzjhjh,Q~KKNjhNz ",
"6666664.....OOOO.....,QRKCljott5",
"UEEKKIl3bKLRCjhq2MHZM8W!IUMjl`]R",
"RRCBHMlpLEENZcjb2UMNl#E!KBlzc_/T",
"HWCVzMjzEWRMcxxc2IVlloIRnNljM)^Z",
"HHZZMxyNRCCbNxlnr&$$# KWBbllb^TU",
"VUKCZciMCWKnKEnnT~LNB,!ECnzlc^/L",
"TUEbbxyhB(ETVZVMTLZZn,W!IMxlj_~L",
"LRZbliy=ZUTRNbxhTQZxz,LKBNjhj_!H",
"VZncBliqcBBIBbhhTLBxj,R~KxNhj~~N",
"KVzjnly2,       TZxzh,!ELLnhj_HM",
"VMBfihy2xVHKCBl TZzxh,IUHBMji~Lc",
"nnxjfsy2bCKnbbb TKVzj,!INjjhiTHc",
"CcMhlji2xKNccjj THBcj,ELNxljiIZb",
",,szMnlg8#XXXoo KBblz,Cccxjh;lz+",
"W^^Q!EQEQCZj3dk2KCjhh,%#oXoo;jc+",
"~!!WT!TILCxj3TL Bbxhj,SYYYYYYPJ;",
"~RUELWETCKlf0RN mVVVbqYQQ~EEEEK ",
"^!TTTHL!CCzf0Zh UQHZz#Y!EQZVIBM ",
"!I/!HNRVCnzs2:::654&$ YE{!RIBKj ",
"!![~HKcCCisswULKRLUVn%YRRULVLBj ",
"QQUCLVzxbjfiwKIIIUKMj#YEZVBKNzl ",
"QQHVILbcNjhfqKIIZIHMloYQLBjnhih ",
"EMCCBnzxBjxiwIBBNNMlloPEUBcljjh ",
"TCBxxbxxzllfwCMcnllxj-JCBNczzll+",
"DDDDDDDDDDDvGDDDDDDDDGvDDDDDDDDa"
};
