/* XPM */
static char *b594115c63dd4f63f9791db8542f6e81guQUwawYgDRaf4q5[] = {
/* columns rows colors chars-per-pixel */
"32 32 50 1 ",
"  c #202020",
". c gray13",
"X c gray15",
"o c gray16",
"O c #2D2D2D",
"+ c gray19",
"@ c #373737",
"# c gray22",
"$ c #3F3F3F",
"% c gray25",
"& c gray27",
"* c #484848",
"= c gray30",
"- c #535353",
"; c gray34",
": c gray35",
"> c #5D5D5D",
", c gray39",
"< c #656565",
"1 c DimGray",
"2 c #6D6D6D",
"3 c #727272",
"4 c #777777",
"5 c gray47",
"6 c #7C7C7C",
"7 c gray51",
"8 c gray52",
"9 c gray54",
"0 c gray56",
"q c #929292",
"w c #979797",
"e c gray60",
"r c #9D9D9D",
"t c #A2A2A2",
"y c #A4A4A4",
"u c gray67",
"i c #ACACAC",
"p c #B2B2B2",
"a c gray71",
"s c #BBBBBB",
"d c gray75",
"f c gray76",
"g c gray77",
"h c #CBCBCB",
"j c #CDCDCD",
"k c LightGray",
"l c #D5D5D5",
"z c gray86",
"x c gray89",
"c c #E4E4E4",
/* pixels */
"$$$$$>7776777-&26654,+#####%$$$$",
"2222*qhghgjfd=1deqqq4O>pppq4<11<",
"fdu7#wauruyr0#;tert0:O,kpagddssa",
"urw2+eawtwqw0#$5req9@O,he0wq0rwe",
"ee5*X7stwq0q7&+*=###+o-lw9qqeqt9",
"<,&+X<sw70wq9&O$@$&-;%=p9952,::>",
"XXoO+=j00ww9q&o,pkjd7@&1;&%@@ooo",
"$@###=uee99e4*X4jwq03O@@#O@##$$#",
"yyyt>#7i0q806;.4dree3o>g0-euyuyu",
"ree9-@:rqq75<& 4i6<:=O0i;2kppiii",
"tee9&@=;=*%O  .;-@....tu;2dqqq70",
"w609&o,;#+OX=;:5rir9%-jr=1aqww50",
"0y04$ojret1=ucgssssq#,hq*:te98we",
",,:$@ofyrw%*gywwe0e6+,gt##@&&&*-",
".XX+$&fweq%$fqe870e3@,hr$&@##+o.",
"4gzjd&fe8e=@aiee67e3o,ae#4zt,**=",
"tietr*ftte:O9htee6e,+<ae#w0y0e8&",
"tteyq#ftet>X3leeqee;X1se#9ey0e8%",
"rtuee#jqeq:.=heeee5*O,q*#5rue07#",
"rtyeq%sqt0,.&35-+X.XO=&-;#XXXXXO",
"tiett#te0e:.@&@@#&%&&=<44443333&",
"eire5oerw0>XOwaaaaapsjzcxxxclj7$",
"wiew4oetw0>o rghhdgdgfirrtqttt,+",
"6te:&+5ee0,O.9j0wwwrqyeq90were<+",
"*#%;#$<322;o.2lwwew99wweeq79w7,o",
"=*%+O%#XXoXX.:w655qt9808qw0q09,O",
"3fhfw6:&@+@+@*&@@@*><,,,,,>,,,&+",
"5ftdpjhhhgdsuw98>&@+@++OooooXo+&",
"4dtqw0ee8t0qyisu=*<r3%&*%%%%%%--",
"5q62666343456572%@qpgg9>gdssprw%",
"-@oooooOoOOoOoooOo:36329rryrrr4#",
"-&$$#$++@+++@+@+++&=#OO&*#######"
};
