/* XPM */
static char *_173b12127604c26c90bce9d3b90945fn5i0w2fMdXWUHJXv[] = {
/* columns rows colors chars-per-pixel */
"32 32 160 2 ",
"   c #1F253E",
".  c #222837",
"X  c #20273E",
"o  c #232A3D",
"O  c #282F3F",
"+  c #243237",
"@  c #25353B",
"#  c #25383D",
"$  c #2B3C3E",
"%  c #242C44",
"&  c #282F46",
"*  c #262E49",
"=  c #282F49",
"-  c #273047",
";  c #2A3245",
":  c #263A40",
">  c #2B3E41",
",  c #27304B",
"<  c #2B344C",
"1  c #2E384F",
"2  c #313F41",
"3  c #303748",
"4  c #31394D",
"5  c #2D3653",
"6  c #2F3854",
"7  c #2F3A5A",
"8  c #323B55",
"9  c #333D5A",
"0  c #2B4147",
"q  c #2E444A",
"w  c #31494E",
"e  c #364157",
"r  c #3A4255",
"t  c #3B4D50",
"y  c #37425F",
"u  c #36415D",
"i  c #36415B",
"p  c #38425B",
"a  c #38435B",
"s  c #38445B",
"d  c #39435D",
"f  c #38435E",
"g  c #38425F",
"h  c #38435F",
"j  c #38445C",
"k  c #39455C",
"l  c #39445E",
"z  c #39445F",
"x  c #39455F",
"c  c #3A455E",
"v  c #3A445F",
"b  c #3A455F",
"n  c #3A465E",
"m  c #3B475F",
"M  c #3C445C",
"N  c #374360",
"B  c #364263",
"V  c #384360",
"C  c #384361",
"Z  c #394461",
"A  c #394561",
"S  c #3A4460",
"D  c #3A4561",
"F  c #3A4661",
"G  c #3B4661",
"H  c #3B4761",
"J  c #394562",
"K  c #3A4562",
"L  c #3A4662",
"P  c #3B4662",
"I  c #3B4762",
"U  c #3B4763",
"Y  c #3C4763",
"T  c #3B4764",
"R  c #3B4663",
"E  c #3B4863",
"W  c #3B4963",
"Q  c #3C4860",
"!  c #3D4860",
"~  c #3C4861",
"^  c #3E4A61",
"/  c #3C4962",
"(  c #3D4962",
")  c #3D4963",
"_  c #3E4A63",
"`  c #3B4864",
"'  c #3C4864",
"]  c #3D4864",
"[  c #3C4865",
"{  c #3D4865",
"}  c #3C4965",
"|  c #3D4965",
" . c #3E4A64",
".. c #3E4A65",
"X. c #3F4B65",
"o. c #3D4966",
"O. c #3E4966",
"+. c #3F4B66",
"@. c #3E4B67",
"#. c #3F4B67",
"$. c #3F4C65",
"%. c #3F4C67",
"&. c #3E4965",
"*. c #3A4668",
"=. c #3E4C68",
"-. c #3F4C68",
";. c #3D4A6C",
":. c #424A5E",
">. c #465A5D",
",. c #404C67",
"<. c #424F67",
"1. c #444C62",
"2. c #404C68",
"3. c #414C68",
"4. c #414E69",
"5. c #424E69",
"6. c #424E6A",
"7. c #424F6A",
"8. c #424E6B",
"9. c #424D6B",
"0. c #475066",
"q. c #485165",
"w. c #4B5E61",
"e. c #425069",
"r. c #435069",
"t. c #43506B",
"y. c #44506B",
"u. c #44516B",
"i. c #44526A",
"p. c #45536B",
"a. c #43516C",
"s. c #44516C",
"d. c #45516D",
"f. c #44526D",
"g. c #45526D",
"h. c #45536D",
"j. c #45526E",
"k. c #45536F",
"l. c #46536E",
"z. c #47546F",
"x. c #45506C",
"c. c #4C546A",
"v. c #4F596D",
"b. c #515A6F",
"n. c #414E70",
"m. c #475570",
"M. c #485571",
"N. c #485671",
"B. c #495671",
"V. c #4B5973",
"C. c #4B5974",
"Z. c #4C5A74",
"A. c #4E5D77",
"S. c #525C70",
"D. c #515F79",
"F. c #505F79",
"G. c #4E6264",
"H. c #52617B",
"J. c #53627C",
"K. c #54627C",
/* pixels */
"8 s H H b b b b b 9 ; 9 8 i i 8 8 9 6 8 1 e e.p.p.p.e.%.m p 8 $ ",
" .M.M.M.j.j.j. .T H 3 9 9 i i N H i i 9 9 %.H.J.K.F.A.V.h.5.) q ",
") j.j.j.j.5.5.3. . .1 6 9 9 9 9 9 9 9 9 6 ) A.H.F.A.C.M.p.,.f > ",
"b 5.5.5. .) H f B H < 5 5 6 7 7 9 8 7 7 6 ) V.A.Z.V.M.j.,.p 8 0 ",
"9 H f H f p i 9 9 9 ; , * % = = 5 5 5 5 5 i h.e.m m ) i 4 6 ~ 0 ",
"; 6 6 8 1 1 1 1 < < & X X X % % % % < % % ; 4 6 8 8 1 1 < 5 4 @ ",
"8 5 5 5 1 ; 8 9 i i s 9 9 9 6 1 8 b m m b s i e e 8 < 1 5 6 8 q ",
"9 8 7 5 5 1 i b `  .%.%. .b 9 8 ` m.m.m.h.e.%.` j i 1 6 9 9 9 q ",
"9 7 5 7 5 5 9 9 B {  .{ { H 9 8 %.j.a.a.a.=.` N i 9 = 5 7 7 7 q ",
"5 5 5 5 5 = 5 7 9 9 V g i 9 9 5  .=.=.=.` o.~ u 7 < = 5 5 5 5 : ",
"* * * * % = 5 5 5 7 9 9 9 5 < < i H ` ` ` H u 7 , * % , , , , : ",
"% % % % % % = < = 5 5 = = = = & 6 9 e 7 6 5 < < = % o % * % * @ ",
", 5 < 5 3 < = % 5 5 O & % & < < < < ; & & - ; < < < < 5 , * = + ",
"9 *.{ ,.{ { R 6 1 9 ; 9 9 9 9 9 9 5 5 < < 5 9 i f f f 9 7 5 5 : ",
"9 { { { { { { 1.5 = & 9 9 i 9 9 9 9 9 , * 5 9 9 9 9 9 9 9 9 6 # ",
"5 9 V V R { R 9 9 5 % 9 9 9 9 8 8 5 5 5 < = 5 7 9 9 5 9 5 7 5 # ",
"= 5 9 9 9 8 5 3 3 3 < 5 6 8 6 5 5 < * , = * % * 5 5 5 5 5 6 5 O ",
"& < 3 < 3 = 3 < < & & < = = < = < = = = % * %   %   % & = = % O ",
"3 4 4 4 & = = 5 < < & & % o . . & 3 1 1 3 3 ; = * & O 3 3 3 3 2 ",
"S.S.S.b.1.8 g R ,. .,.,.G 9 8 3 :.<.q.0.q.q.1.1.M 9 r c.b.b.b.G.",
"S.S.S.v.:.9 0.1.3.3.9.9.8.8.3.5 :.0.c.0.0.0.1.1.:.M 8 c.c.v.b.G.",
"b.v.c.c.:.9 1.R { { ,.9.3.3.{ 8 M 1.1.1.1.1.:.1.M M 4 0.q.c.c.w.",
"q.:.:.:.:.8 R R V 1.1.R G 1. .4 3 8 4 9 9 1.9 9 9 4 3 1.0.0.0.>.",
":.:.r r 9 4 8 8 8 8 8 8 8 9 f ; < < 3 3 4 8 8 4 < = 3 r M :.:.t ",
"4 p 9 9 8 < < 1 5 , ; 6 6 8 8 ; ; ; , , ; ; 5 5 3 = & 3 3 4 3 2 ",
"9 B B B V R B 9 B 7 5 9 i i i B i 9 6 5 5 < 7 9 9 9 7 6 < = = # ",
"9 ;.;.;.9.n.n.;.;.;.5 u j N H B u 9 5 5 , 5 5 7 9 9 9 9 9 8 9 > ",
"9 *.*.;.;.;.;.;.o.*.7 u u 9 9 9 7 7 5 5 , * 5 5 7 6 6 5 5 7 7 : ",
"6 B B T *.T i 9 i B 6 6 7 7 6 5 5 = , , , * X % = < 5 5 5 6 5 o ",
"< 9 9 6 5 5 5 5 1 1 & % % * % % % % X * %   X X X % % < = = & . ",
"; < < < < ; 1 < < < O & % ; ; o o % % X . % X % % % X o X & & + ",
"i 9 8 6 < r q.q.q.q.:.:.0.1.:.4 e i 6 5 < e i i 8 9 4 6 6 8 e w "
};
