/* XPM */
static char *_e1f15cc5a9346e6fb81712e9546d458Br9OsdNWTLrc2J3p[] = {
/* columns rows colors chars-per-pixel */
"32 32 160 2 ",
"   c #000000",
".  c #0A0000",
"X  c #0D0D0D",
"o  c #131313",
"O  c gray11",
"+  c #340000",
"@  c #380000",
"#  c #341A00",
"$  c #003100",
"%  c #3E250B",
"&  c #2E2E2E",
"*  c gray21",
"=  c gray23",
"-  c #4A0000",
";  c #5E0000",
":  c #600000",
">  c #730000",
",  c #731A1A",
"<  c #792F2F",
"1  c #6E3A3A",
"2  c #1E6B1E",
"3  c #375737",
"4  c #2E7A2E",
"5  c #3A6E3A",
"6  c #436507",
"7  c #6A5239",
"8  c #556A37",
"9  c #007959",
"0  c #434343",
"q  c #4D4D4D",
"w  c #495F49",
"e  c gray33",
"r  c #555952",
"t  c #5D5D5D",
"y  c #644444",
"u  c #456445",
"i  c #616147",
"p  c #666654",
"a  c #656565",
"s  c #6D6D6D",
"d  c #727272",
"f  c #797979",
"g  c #990F0F",
"h  c #A40404",
"j  c #A80000",
"k  c #AA0808",
"l  c #B30B0B",
"z  c #BA1212",
"x  c #832525",
"c  c #C21A1A",
"v  c #CE2626",
"b  c #D32B2B",
"n  c #DE3636",
"m  c #DC3E34",
"M  c #E23A3A",
"N  c #8A4500",
"B  c #9D4F00",
"V  c #8E541A",
"C  c #A85400",
"Z  c #B46C0C",
"A  c #835425",
"S  c #C24F1A",
"D  c #A84F4F",
"F  c #BB5454",
"G  c #CD4444",
"H  c #ED4545",
"J  c #E74D4D",
"K  c #F44C4C",
"L  c #FC5454",
"P  c #FC5D54",
"I  c #D0704C",
"U  c #FC6854",
"Y  c #F57057",
"T  c #0B9D0B",
"R  c #188C18",
"E  c #149414",
"W  c #189010",
"Q  c #00A800",
"!  c #1AA81A",
"~  c #10B810",
"^  c #1FBD1F",
"/  c #258325",
"(  c #1CC41C",
")  c #25CD25",
"_  c #2FD72F",
"`  c #34DC34",
"'  c #3AE23A",
"]  c #54A854",
"[  c #739273",
"{  c #6EBE6E",
"}  c #74A874",
"|  c #7CB57C",
" . c #44EC44",
".. c #54FC54",
"X. c #73FC54",
"o. c #79D779",
"O. c #64EC64",
"+. c #C2871A",
"@. c #C6901E",
"#. c #D7B22F",
"$. c #E2AD3A",
"%. c #E2C73A",
"&. c #FC8854",
"*. c #FC9954",
"=. c #FCB254",
"-. c #90FC54",
";. c #9DFC54",
":. c #ABFC54",
">. c #CDCD44",
",. c #D8D854",
"<. c #FCC554",
"1. c #FCD854",
"2. c #FCE254",
"3. c #FCF254",
"4. c #FCFC54",
"5. c #F8FC59",
"6. c #FCFC6A",
"7. c #FCFC7F",
"8. c #0000A8",
"9. c #3A3AE2",
"0. c #4949F1",
"q. c #5454FC",
"w. c #545CFC",
"e. c #5462FC",
"r. c #5479FC",
"t. c #548BFC",
"y. c #549EFC",
"u. c #54AFFC",
"i. c #7DFCD3",
"p. c #54C0FC",
"a. c #54E2FC",
"s. c #54FCFC",
"d. c #6AFCFC",
"f. c #72FCFC",
"g. c #7AFCFC",
"h. c #838383",
"j. c #8D8D8D",
"k. c gray58",
"l. c #999999",
"z. c #87AB87",
"x. c #A5A5A5",
"c. c #A8A8A8",
"v. c #B2FC9D",
"b. c #9DFCB2",
"n. c #FCFC89",
"m. c #FCFC99",
"M. c #FCFCB2",
"N. c #9DFCFC",
"B. c #A6FCFC",
"V. c #B2FCFC",
"C. c #D5D5D5",
"Z. c #FCFCC9",
"A. c #FCFCD3",
"S. c #FCFCDC",
"D. c #C5FCFC",
"F. c #DCFCFC",
"G. c #ECECEC",
"H. c #FCFCF2",
"J. c #F2FCFC",
"K. c gray99",
/* pixels */
": @ M M j M 9 j j M j j -     > >     c.c.l.c.    9 h.  s = c.t ",
"j P 4.4.4.4.9 4.4.3.3.L k j L h e K j c.c.c.  c.d 9 e     * e e ",
"j P 4.K.4.L 9 *.U e ,.L H z e F e j v h.h.c.  c.c.9 e e     e O ",
"j L 4.4.2.L 9 c 4.4.p L j j j e e e L   s o     c.9 * e a a k.e ",
"j z L L 4.j 9 S j L 4.<.j k e e z z j   0 h.c.  c.9 e e e * O o ",
"j b z b L j 9 L j j j v g g j j x j < c.x.h.c.  c.9 e e   e . d ",
"9 9 9 9 9 9 9 9 9 9 9 9 9 9 9 9 9 9 9 9 9 9 9 9 9 9 9 9 9 9 9 9 ",
"e e e e w e 9 c.c.e c.l.c.K.K.K.d K.q c.c.c.c.c.c.9 e w o e e / ",
"E 5 Q e E Q 9 s { O d ! [ c.c.c.c.s c.d d   d d d 9 e w . j $ e ",
"R   e e e & 9 c...c.x.O.c.K.K.K.K.K.K.c.c.& c.c.c.9 j W j h h e ",
"T e E   4 4 9 ^ _ ..x.] o.C.C.C.C.C.C.h.h.O h.h.h.9 5 6 l < e u ",
"/ e Q   e e 9 } c.z.c.x.c.K.K.K.K.K.  x.c.c.c.x.c.9 e e y e e e ",
"0 0 2 . Q Q 9 0 0  .z.| [ G.G.G.G.G.  l.l.l.l.l.l.9 O 0 3 u Q R ",
"} D ] ! ~ b 9 a e f j.e q s C.c.c.K.c.C C   C C C 9 4.4.4.4.4.C ",
"c.Y k c.c.k 9     e   e   e e d e e e B B B B 7 B 9   B B B B B ",
"I   v M c.& 9           X = * a e e h.V V 7 V 0 e 9   C C N C C ",
"s   8 1 ^ X 9   O         f * e e e s C C % C C C 9 4.4.4.4.4.# ",
"n c.c.  c.k 9     X     o r . O e l.& C C C C   C 9 4.4.4.4.4.4.",
"c.c.o.  c.o.9 f t e f e e c.C.x.c.c.c.A e A A   e 9 C C C C C C ",
"L L G H L J 9 4.. Y 4.>.4.v L z j L j j H H j K H 9 4.4.Z C 4.C ",
"j j l j j j 9 =.4.L L L 2.K 4.S.4.4.L M 4.S.4.4.U 9 4.s.f.s.5.C ",
"j j L j L j 9 L L L L *.L z 4.K.K.4.L j L A.K.Z.L 9 #.K.K.B.s.%.",
"j K j j k j 9 P L L U 4.L L H.n.n.5.b j 4.4.q n.L 9 4.F.,.N.4.@.",
",   + ; L L 9 v 4.j 4.j m L 4.K.K.H.L z 4.m.K.K.&.9 v.d.J.K.s.Z ",
"    j + > j 9 j j k $.$.j L &.<.1.&.L H P &.&.4.U 9 4.s.4.s.s.%.",
"9 9 9 9 9 9 9 9 9 9 9 9 9 9 9 9 9 9 9 9 9 9 9 9 9 9 9 9 9 9 9 9 ",
"4.s.i.v.v.4.9 ..;.:.;.;.Q ..:.....;...8.e.y.y.y.q.9 q.s.p.r.q.8.",
"C s.K.D.K.4.9 ..n.4.4.4.Q ) H.K.S.4...8.t.B.f.K.w.9 q.f.F.s.r.8.",
"C s.b.i K.4.9 ..7.X M.X.Q ( 4.6.n.H.) 8.a.K.o K.q.9 q.F.i V.s.8.",
"+.s.K.M.B.4.9 4.K.M.m.X.~ ..H.Z.M.4._ 0.u.s.K.D.t.9 y.K.K.V.e.q.",
"+.s.K.J.K.4.9 -.K.4.K.5. ...H.K.4.K...q.r.K.s.K.q.9 s.g.K.J.s.9.",
"C 4.+.%.4.C 9 ' ( ' ` ' Q Q ( ' ' ..Q 8.q.9.9.q.9.9 q.8.9.9.9.8."
};
