/* XPM */
static char *_a516af39c5c4b9fd8679f1aa7f8619baDEE2frnGG3IZ0ZC[] = {
/* columns rows colors chars-per-pixel */
"32 32 142 2 ",
"   c #563E1D",
".  c #593F1F",
"X  c #5C401F",
"o  c #5E4120",
"O  c #644422",
"+  c #6A4724",
"@  c #6D4926",
"#  c #714B27",
"$  c #754C29",
"%  c #7A4F2A",
"&  c #7D512C",
"*  c #83542E",
"=  c #865630",
"-  c #895730",
";  c #865832",
":  c #8D5932",
">  c #8D5933",
",  c #8C5932",
"<  c #8F5933",
"1  c #8D5A32",
"2  c #8D5A33",
"3  c #8E5A33",
"4  c #8F5A33",
"5  c #8E5B33",
"6  c #8F5B33",
"7  c #8D5B34",
"8  c #8F5A34",
"9  c #8F5B34",
"0  c #8F5B35",
"q  c #8F5C34",
"w  c #8C5932",
"e  c #905A33",
"r  c #915A33",
"t  c #905B33",
"y  c #905B34",
"u  c #915B34",
"i  c #905B35",
"p  c #915B35",
"a  c #925B34",
"s  c #905C34",
"d  c #915C34",
"f  c #915C35",
"g  c #925C34",
"h  c #935C34",
"j  c #935C35",
"k  c #925D35",
"l  c #935D35",
"z  c #925D36",
"x  c #935D36",
"c  c #945C35",
"v  c #945D35",
"b  c #955D35",
"n  c #945D36",
"m  c #955D36",
"M  c #945E36",
"N  c #955E36",
"B  c #965E36",
"V  c #975E36",
"C  c #965F36",
"Z  c #975E37",
"A  c #965F37",
"S  c #975F37",
"D  c #945D35",
"F  c #985F37",
"G  c #995F37",
"H  c #9A5F37",
"J  c #985F37",
"K  c #975F38",
"L  c #985F38",
"P  c #976037",
"I  c #9A6037",
"U  c #976138",
"Y  c #986038",
"T  c #996038",
"R  c #996138",
"E  c #9A6038",
"W  c #9B6038",
"Q  c #9B6139",
"!  c #9A633A",
"~  c #9C6139",
"^  c #9D6139",
"/  c #9D6239",
"(  c #9C613A",
")  c #9D623A",
"_  c #9E623A",
"`  c #9E633A",
"'  c #9E633B",
"]  c #9F633B",
"[  c #9F643A",
"{  c #9F653B",
"}  c #9C6139",
"|  c #A0633B",
" . c #A0643B",
".. c #A0633C",
"X. c #A1643C",
"o. c #A1653C",
"O. c #A2653C",
"+. c #A2653D",
"@. c #A3653D",
"#. c #A2663C",
"$. c #A3663D",
"%. c #A4653D",
"&. c #A4663D",
"*. c #A5673D",
"=. c #A6673D",
"-. c #A5663E",
";. c #A4673E",
":. c #A5673E",
">. c #A6673E",
",. c #A2653C",
"<. c #A6683E",
"1. c #A6693E",
"2. c #A7683E",
"3. c #A8693E",
"4. c #A8683F",
"5. c #A9693F",
"6. c #A9693F",
"7. c #AA6A40",
"8. c #AB6A40",
"9. c #AA6B40",
"0. c #AB6B41",
"q. c #AC6B41",
"w. c #AC6C41",
"e. c #AD6D41",
"r. c #AE6D41",
"t. c #AF6C42",
"y. c #AF6D42",
"u. c #AF6E42",
"i. c #AC6B41",
"p. c #B06E43",
"a. c #B16E43",
"s. c #B16F43",
"d. c #B26F43",
"f. c #B16F43",
"g. c #B27044",
"h. c #B47245",
"j. c #B57245",
"k. c #B67345",
"l. c #B67346",
"z. c #B47144",
"x. c #BA7547",
"c. c #BC7848",
/* pixels */
"c u q.c.j.r.1.u = =  .r.E E +.* h 1.1.[ u , E c = - c *.7.*.L % ",
"' ' q.r.' t * $ # * q. .q h I $ = , h & $ & = % $ & t c E h , = ",
"x.5.' - & % $ % & E g.+.c q * o & , * $ % - - * $ - L F 7 u { c ",
"r.t * $ $ $ & - E q.1.+.P * +   % = * * F c , = % - L F L 7.7.& ",
"E & $ $ # & ,  .r.5.I c * O O   & c h 7 - = * % % , u F 5.r.u # ",
"- $ $ $ & , *.j.g.P * $ O X O X , F - & $ & * % & , h H *.' * # ",
"* # % = E 1.p.p.h & $ o . O & @ , = $ & , , * $ = F ' L L F * $ ",
"* * c *.r.p.g.c % $ +   O & U & & % * h c * % - I +.| F | c * % ",
"c u | +.c 5.1.& $ + X O $ h P O & * c I 7 & h +.+.' F t F = = % ",
"1.c E , , r.h % + X X $ d d & X * c I h c E *.E , * * , = t = @ ",
"r.+.*.L 5. .& @ o o + , h & $ + 7 ' c F E ' h & $ & - * - - $ + ",
"j.j.*.u ^ * # + O + & h & $ * $ - u | | F L * & t u & $ = % O + ",
"l.c % * c % # @ @ * = & & * , @ * ' 7.K c ' c h - % $ % = @ # * ",
"{ @ @ , u $ # # * c , , d d , O , *.L u ' | h & $ # $ % t * - = ",
", $ * E - % & u P * * h c c * O ! r...c c * $ $ % & * - | ^ ^ % ",
"$ + $ * @ $ * , & + + @ & & + X 7 h % $ $ O O O @ & $ * - - * O ",
"& % & , = = = * $ + @ $ % * = + = & $ & $ @ $ & $ $ $ = ; , & o ",
"] u K 7.K - = * & $ = c +.*.*.* ! K z = & , c = @ & U E U ' h $ ",
"z 7 ' F 7 * % % & & 7 h 7...' * E ' 7 % & t * $ & h { h q ! U & ",
"- = - * - = , c E q h ] q...^ & U , & & * % % * I [ E h K { h $ ",
"- - * % = H %.' q % c q.| c F $ U - * & $ $ * b | ' L , h E - & ",
"c u * - *.5.' c = & u *.' F F & E P ; & % % * ' | F , * , h = = ",
"*.c - ..| c - * & h h +.1.' 7., q & + & , * * F E = $ % u , = - ",
"q.*.q.' = * * = 7 c E r.+.' +.$ $ o O * * % * ' t * & u c u L - ",
"d.q.5., * * q c E P [ +.c c * o $ O # % % * c +.c , , E ' E 7 @ ",
"q.' ' h , - q ' E ;.5.' c - , @ % # $ $ % c | *.c * h r.r., $ @ ",
" .c E , * * d 5.u.w.h * * , E @ % $ $ $ - H | F , , E +.E * $ + ",
"L t h , c ' *.5.[ * & * , E c O $ $ % , F | H h I c * * , , % + ",
"u h ' | 5.5. . .* * - d h ' - O $ & c w.4.| ' ' F % % * , c * O ",
"c +.| H ' , c F c c c , , h * o & , 5.j.4.' F t % $ * - * , & @ ",
" .' L ' * * ' I ' c - & = , % X & F g.1.E '  .& $ * = & * c c - ",
"F , u u $ * u - & # @ @ * * % O & h I * & t * + + $ $ @ % , t & "
};
