/* XPM */
static char *_f0a57fd53dc4482966089d03c88a6cdtPoYxxqpPsIauKXa[] = {
/* columns rows colors chars-per-pixel */
"32 32 186 2 ",
"   c #D5230F",
".  c #D52511",
"X  c #D62A16",
"o  c #D62C19",
"O  c #D7311E",
"+  c #D73322",
"@  c #D83523",
"#  c #D93827",
"$  c #D93B2B",
"%  c #D54304",
"&  c #D54708",
"*  c #D64B0E",
"=  c #D74C10",
"-  c #D75116",
";  c #D85116",
":  c #D8551B",
">  c #DA402F",
",  c #DA5B23",
"<  c #DA5E28",
"1  c #DB4334",
"2  c #DD4D3E",
"3  c #DB612C",
"4  c #DC6936",
"5  c #DD6C3A",
"6  c #DB6531",
"7  c #F46837",
"8  c #F46B3B",
"9  c #DD4F41",
"0  c #DD5042",
"q  c #DF5649",
"w  c #DF5A4C",
"e  c #DF5E52",
"r  c #E05B4E",
"t  c #E05F53",
"y  c #DE7345",
"u  c #DF7648",
"i  c #DF784C",
"p  c #F46F40",
"a  c #E07647",
"s  c #E07A4B",
"d  c #F57244",
"f  c #F5764A",
"g  c #F5784D",
"h  c #E06155",
"j  c #E1665A",
"k  c #E1685C",
"l  c #E17E53",
"z  c #F67C52",
"x  c #E26B61",
"c  c #E4766C",
"v  c #E5786E",
"b  c #E37166",
"n  c #E57C73",
"m  c #E2855B",
"M  c #E28357",
"N  c #F68057",
"B  c #F68259",
"V  c #FA9B5D",
"C  c #E28760",
"Z  c #E48C65",
"A  c #E48F6B",
"S  c #F68760",
"D  c #F78A64",
"F  c #F78F6B",
"G  c #F88C65",
"H  c #E5916C",
"J  c #FA9F63",
"K  c #F7916E",
"L  c #E6847C",
"P  c #E8877E",
"I  c #E7887F",
"U  c #E69672",
"Y  c #E69976",
"T  c #E89B76",
"R  c #E79C7B",
"E  c #E89C78",
"W  c #F79675",
"Q  c #F89671",
"!  c #F89B7B",
"~  c #F99975",
"^  c #FAA165",
"/  c #FBA56B",
"(  c #E9A07C",
")  c #FBAB74",
"_  c #FBAE79",
"`  c #FBB17E",
"'  c #E88780",
"]  c #E78881",
"[  c #E98B84",
"{  c #E98F89",
"}  c #EA908A",
"|  c #EA9691",
" . c #EB9C95",
".. c #EB9E99",
"X. c #E9A381",
"o. c #EAA98D",
"O. c #F9A385",
"+. c #F9A78B",
"@. c #FAAB8D",
"#. c #FCB583",
"$. c #FDB887",
"%. c #FCB788",
"&. c #FDBB8B",
"*. c #EBAD94",
"=. c #ECA19B",
"-. c #FAAD92",
";. c #EDB194",
":. c #EDB59C",
">. c #FDBE92",
",. c #FAB39A",
"<. c #FBB99F",
"1. c #FBB397",
"2. c #EFACA6",
"3. c #EFAFA9",
"4. c #EDB7A0",
"5. c #EEBBA3",
"6. c #EFB2AC",
"7. c #EEBEA9",
"8. c #F0BFA7",
"9. c #FBBAA5",
"0. c #F0B1AD",
"q. c #FBBEAA",
"w. c #EFB6B4",
"e. c #F2BEB9",
"r. c #F1BBB6",
"t. c #FDC196",
"y. c #FDC59D",
"u. c #EFC0A9",
"i. c #FDC7A1",
"p. c #FFCCA5",
"a. c #F0C1AA",
"s. c #FCC1AD",
"d. c #FECDAA",
"f. c #FFD2AE",
"g. c #F2C7B5",
"h. c #FCC5B3",
"j. c #F2C8B6",
"k. c #FCC8B5",
"l. c #F3C2BD",
"z. c #F3CCBB",
"x. c #FBCBBA",
"c. c #FDD2B2",
"v. c #F5D0BF",
"b. c #FDD6BA",
"n. c #FED9BD",
"m. c #F3C5C1",
"M. c #F4CBC4",
"N. c #FBCFC1",
"B. c #F6CECA",
"V. c #F4D2C3",
"C. c #FBD3C5",
"Z. c #FEDDC4",
"A. c #F5D3C9",
"S. c #FBD6CB",
"D. c #F6DBCE",
"F. c #FDDBCC",
"G. c #F7D6D1",
"H. c #F8D7D1",
"J. c #F7DAD4",
"K. c #FADCD2",
"L. c #F8DEDA",
"P. c #FFE1C7",
"I. c #FFE3CB",
"U. c #FCE3D5",
"Y. c #FFE9D6",
"T. c #F7E2D9",
"R. c #FCE5DB",
"E. c #FFECDE",
"W. c #FDE9DD",
"Q. c #FAE5E1",
"!. c #FDEDE3",
"~. c #FEEDE3",
"^. c #FDEBE6",
"/. c #FEEFE5",
"(. c #FEEFE5",
"). c #FDEDE6",
"_. c #FCEAE4",
"`. c #FBEEE9",
"'. c #FCEDE9",
"]. c #FFF0E2",
"[. c #FFF2E9",
"{. c #FDF1EE",
"}. c #FDF2EC",
"|. c #FEF5F2",
" X c #FFFAF5",
".X c #FEFBF9",
/* pixels */
"~.E.~.|.G.G.G.J.L.J.T..X).).~.).~.E.[.{.G.G.G.J.J.J.`..X~.^.).).",
"#._ %.D.9 2 9 9 2 1 k R._ ` ` ` ` ) d.e.1 9 9 2 9 $ [ I./ #._ ` ",
"_ #.$.S.9 9 9 2 9 2 k R.` #.#.` #._ f.e.$ q 9 9 q 1 { I._ #.#.` ",
").R.E.'.J.H.H.J.L.A.J.).U.R.U.~.~.U.~.^.S.H.H.L.J.B.L.`.U.R.U.).",
"N.G Q F Q W G h.u.5 u y y a 4 5.s.S Q F Q Q G F.( 5 a y y y 5 A.",
"k.g B B z B d 9.:.; 3 3 3 3 : ;.9.f B B B z f N.H : 3 3 3 3 , z.",
"'.S.K.K.K.K.S.^.!.v.A.A.M.V.z._.^.S.K.K.K.K.F.{.T.v.A.A.z.V.v.).",
"j k x K.y.>.t.>.>.t.f.J.j x x j j h { Y.&.t.>.>.t.t.P.r.h b k j ",
"$ # $ S._ / / ) ) ^ &.M.O $ $ $ $ O x I.^ / / ) / ^ f.=.o $ $ $ ",
"e.m.m.|.Y.U.Y.U.U.I.E.{.l.l.l.l.l.e.G. XU.Y.Y.U.U.I.[.Q.e.l.l.l.",
"V.H U Z H H m 7.S.O.+.+.-.-.O.F.a.Z U Z H H C A.k.O.+.+.-.@.@.R.",
";.= : : : : & U q.8 g g f g 8 q.E & : : : : & 5.O.8 g g f f d C.",
"R.4.5.4.8.8.8.S.^.k.x.k.x.x.h._.D.:.5.5.a.a.:.E.U.x.x.h.x.x.k.'.",
"d.c.b._.{ { { [ P [ ..[.c.c.c.d.d.c.U.J.P } } P [ L w.].d.c.k.d.",
"/ J ) z.+ o + + @ X 9 F.^ ^ ^ / / V t.0.  @ O @ @   v n.V ^ ^ / ",
"b.Z.Z.^.2. ... .....0.|.n.Z.Z.n.b.n.Y.L.| =.=. .=. .M.[.n.Z.Z.b.",
"R.q.s.q.h.h.s.L.K.*.;.*.*.*.o.D.K.9.s.q.h.h.s.).v.;.;.*.*.;.*.Q.",
"s.8 f f f f 7 -.o.% : : ; : % o.1.7 g f f f 8 k.m & : : - - = a.",
"R.,.9.-.1.,.-.S.V.U R E X.X.T V.F.1.,.-.,.,.-.R.5.U E R X.X.( T.",
"2.2.6.{.I.Z.I.Z.Z.P.Y.'.3.0.0.3.2.2.m. XZ.Z.F.Z.P.Z.].L.2.3.w.2.",
"# + $ V.) ^ / / / J &.l.o @ + @ # X j F.V / / / / V d. .. $ + @ ",
"v n L R.d.p.d.i.i.i.b.L.v n n v n v ..].y.f.d.y.i.y.I.m.b n n v ",
"^.j.z.z.j.z.g.T.[.C.S.S.F.F.C.'.R.j.z.j.z.z.j.).R.S.S.F.S.F.S.{.",
":.; , , , , = E h.8 z z z z d s.R * < , , , * 7.+.d z z g z f C.",
"j.i M s M m s :.S.Q ) W ! O.F C.:.y M s M m i V.s.~ ! ~ ! ! W K.",
"E.U.R.'.M.M.M.B.B.M.G.{.U.K.R.R.R.U.~.).m.M.M.B.B.m.L.}.U.U.Y.Y.",
"_ _ ` A.1 1 1 1 1 $ h U.) ) ) ) ) ) p.r.@ 1 1 1 1 O L P./ _ _ _ ",
"%.%.>.K.e q r q w q c E.%.&.>.%.%.#.c.l.0 t w q r r } Y.#.&.&.#.",
"'.R.R._.K.K.K.Q.T.A.J.R.K.U.K.).).U.~._.K.K.H.^.T.A.T.T.K.T.K.[.",
"x.B D S G G B q.4.3 5 5 4 5 < 4.q.z D B G F B C.Y 3 5 4 4 4 6 z.",
"x.B S S S D z 9.:., 4 4 4 4 , :.q.z D S S S z C.U 3 4 4 4 4 6 z.",
"|.R.R._.R.R.U.[.}.D.T.J.U.T.K.{.{.R.R._.R.R.R.|.W.D.K.T.K.T.T.|."
};
